<svg xmlns="http://www.w3.org/2000/svg" viewBox="7.50 -72.50 507.60 92.20" width="507.60" height="92.20"><title>Night Desk</title><path fill="#0F1726" d="M24.10 0L7.50 0L7.50-68.70L23.40-68.70L48.40-36.80Q49.10-36 50.25-34.50Q51.40-33 52.50-31.45Q53.60-29.90 54.10-29L54.10-29L54.60-29.10L54.60-68.70L71.20-68.70L71.20 0L55.40 0L28.90-33.60Q27.60-35.20 26.45-36.90Q25.30-38.60 24.60-39.70L24.60-39.70L24.10-39.60L24.10 0ZM97.80-59.80L81.40-59.80L81.40-72.40L97.80-72.40L97.80-59.80ZM97.80 0L81.40 0L81.40-52.70L97.80-52.70L97.80 0ZM142.10 19.70L115.20 19.70Q111.70 19.70 108.60 18.15Q105.50 16.60 103.65 13.75Q101.80 10.90 101.80 7.10L101.80 7.10Q101.80 2.90 104.35 0.05Q106.90-2.80 110.10-4.20L110.10-4.20Q107.80-5.70 106.35-7.95Q104.90-10.20 104.90-13L104.90-13Q104.90-16.90 107.80-19.60Q110.70-22.30 114.60-23.20L114.60-23.20Q111-25.50 108.75-28.90Q106.50-32.30 106.50-36.50L106.50-36.50Q106.50-42.60 109.75-46.40Q113-50.20 118.70-52.05Q124.40-53.90 131.70-53.90L131.70-53.90Q134.60-53.90 136.95-53.65Q139.30-53.40 141.20-52.90L141.20-52.90Q145.20-55.30 146.70-57.90Q148.20-60.50 148.30-62.10L148.30-62.10L162.60-62.10Q162.60-58.10 161.20-55.35Q159.80-52.60 157.20-50.90Q154.60-49.20 151-48.30L151-48.30Q153.70-46.10 155.20-43.05Q156.70-40 156.70-36.50L156.70-36.50Q156.70-30.80 153.85-26.95Q151-23.10 146-21.10Q141-19.10 134.50-19.10L134.50-19.10L126.70-19.10Q123.90-19.10 122.55-18.25Q121.20-17.40 121.20-16L121.20-16Q121.20-14.70 122.40-13.75Q123.60-12.80 126.50-12.80L126.50-12.80L146.80-12.80Q154.50-12.80 158.60-8.45Q162.70-4.10 162.70 2.60L162.70 2.60Q162.70 7.70 159.90 11.55Q157.10 15.40 152.45 17.55Q147.80 19.70 142.10 19.70L142.10 19.70ZM123.10 9.70L123.10 9.70L140.40 9.70Q142.10 9.70 143.40 9.05Q144.70 8.40 145.45 7.25Q146.20 6.10 146.20 4.60L146.20 4.60Q146.20 2.10 144.60 0.80Q143-0.50 140.70-0.50L140.70-0.50L123.10-0.50Q120.80-0.50 119.25 0.85Q117.70 2.20 117.70 4.50L117.70 4.50Q117.70 6.80 119.25 8.25Q120.80 9.70 123.10 9.70ZM131.60-28.70L131.60-28.70Q135.90-28.70 138.25-30.70Q140.60-32.70 140.60-36.50L140.60-36.50Q140.60-40.40 138.25-42.35Q135.90-44.30 131.60-44.30L131.60-44.30Q127.50-44.30 125.10-42.35Q122.70-40.40 122.70-36.50L122.70-36.50Q122.70-34 123.70-32.25Q124.70-30.50 126.70-29.60Q128.70-28.70 131.60-28.70ZM182.80 0L166.40 0L166.40-72.40L182.80-72.40L182.80-47L183.50-47Q185.20-49.10 187.65-50.65Q190.10-52.20 193.10-53.05Q196.10-53.90 199.30-53.90L199.30-53.90Q205-53.90 208.95-51.80Q212.90-49.70 215-45.50Q217.10-41.30 217.10-34.80L217.10-34.80L217.10 0L200.70 0L200.70-32.50Q200.70-34.70 200.15-36.25Q199.60-37.80 198.60-38.90Q197.60-40 196.10-40.50Q194.60-41 192.70-41L192.70-41Q189.80-41 187.60-39.65Q185.40-38.30 184.10-36.05Q182.80-33.80 182.80-30.80L182.80-30.80L182.80 0ZM244.30 1.20L244.30 1.20Q239.20 1.20 235.65-0.35Q232.10-1.90 230.35-5Q228.60-8.10 228.60-12.50L228.60-12.50L228.60-40.80L221.70-40.80L221.70-52.70L229.10-52.70L232.50-68.10L244.90-68.10L244.90-52.70L255.20-52.70L255.20-40.80L244.90-40.80L244.90-16.50Q244.90-13.70 246-12.20Q247.10-10.70 250-10.70L250-10.70L255.20-10.70L255.20-0.50Q253.90-0.10 251.95 0.35Q250 0.80 248 1Q246 1.20 244.30 1.20ZM306.20 0L277.50 0L277.50-68.70L306.20-68.70Q317.40-68.70 325.15-65Q332.90-61.30 336.95-53.75Q341-46.20 341-34.40L341-34.40Q341-22.70 336.95-15.05Q332.90-7.40 325.15-3.70Q317.40 0 306.20 0L306.20 0ZM295.40-54.70L295.40-14L306-14Q310.20-14 313.30-15.20Q316.40-16.40 318.50-18.70Q320.60-21 321.60-24.40Q322.60-27.80 322.60-32.20L322.60-32.20L322.60-36.40Q322.60-40.90 321.60-44.30Q320.60-47.70 318.50-50Q316.40-52.30 313.30-53.50Q310.20-54.70 306-54.70L306-54.70L295.40-54.70ZM374 1.20L374 1.20Q365 1.20 358.70-1.75Q352.40-4.70 349.05-10.80Q345.70-16.90 345.70-26.40L345.70-26.40Q345.70-35.70 349-41.80Q352.30-47.90 358.50-50.90Q364.70-53.90 373.40-53.90L373.40-53.90Q382-53.90 387.95-51Q393.90-48.10 397-42.10Q400.10-36.10 400.10-26.60L400.10-26.60L400.10-23.10L362.30-23.10Q362.30-18.90 363.50-16Q364.70-13.10 367.20-11.60Q369.70-10.10 373.90-10.10L373.90-10.10Q376.40-10.10 378.30-10.70Q380.20-11.30 381.50-12.45Q382.80-13.60 383.50-15.20Q384.20-16.80 384.20-18.80L384.20-18.80L400.10-18.80Q400.10-14 398.35-10.25Q396.60-6.50 393.20-3.95Q389.80-1.40 384.95-0.10Q380.10 1.20 374 1.20ZM362.40-32.20L362.40-32.20L383.40-32.20Q383.40-34.80 382.75-36.75Q382.10-38.70 380.85-40Q379.60-41.30 377.85-41.95Q376.10-42.60 373.80-42.60L373.80-42.60Q370.20-42.60 367.80-41.40Q365.40-40.20 364.10-37.90Q362.80-35.60 362.40-32.20ZM429.20 1.20L429.20 1.20Q424 1.20 419.45 0.10Q414.90-1 411.45-3.10Q408-5.20 406.05-8.30Q404.10-11.40 404.10-15.50L404.10-15.50L404.10-16.30Q404.10-16.60 404.20-16.90L404.20-16.90L419.70-16.90L419.70-16Q419.80-13.80 421.15-12.35Q422.50-10.90 424.70-10.25Q426.90-9.60 429.50-9.60L429.50-9.60Q431.40-9.60 433.55-10Q435.70-10.40 437.20-11.40Q438.70-12.40 438.70-14.30L438.70-14.30Q438.70-16.40 436.85-17.50Q435-18.60 431.95-19.35Q428.90-20.10 425.40-20.80L425.40-20.80Q421.90-21.60 418.35-22.60Q414.80-23.60 411.85-25.35Q408.90-27.10 407.10-29.90Q405.30-32.70 405.30-37L405.30-37Q405.30-41.60 407.25-44.85Q409.20-48.10 412.60-50.10Q416-52.10 420.45-53Q424.90-53.90 429.90-53.90L429.90-53.90Q434.50-53.90 438.65-53Q442.80-52.10 446.15-50.25Q449.50-48.40 451.40-45.55Q453.30-42.70 453.30-38.90L453.30-38.90Q453.30-38.40 453.25-37.85Q453.20-37.30 453.20-37.10L453.20-37.10L437.80-37.10L437.80-37.90Q437.80-39.60 436.70-40.70Q435.60-41.80 433.70-42.45Q431.80-43.10 429.50-43.10L429.50-43.10Q428-43.10 426.55-42.85Q425.10-42.60 423.90-42.15Q422.70-41.70 421.95-40.90Q421.20-40.10 421.20-38.90L421.20-38.90Q421.20-37.40 422.50-36.45Q423.80-35.50 426.05-34.90Q428.30-34.30 431-33.60L431-33.60Q434.70-32.80 438.80-31.95Q442.90-31.10 446.55-29.55Q450.20-28 452.45-24.95Q454.70-21.90 454.70-16.60L454.70-16.60Q454.70-11.60 452.70-8.15Q450.70-4.70 447.20-2.65Q443.70-0.60 439.10 0.30Q434.50 1.20 429.20 1.20ZM477.40 0L461.00 0L461.00-72.50L477.40-72.50L477.40-31.50L495.20-52.70L514.40-52.70L495.70-31.80L515.10 0L496.40 0L484.70-20.50L477.40-13.40L477.40 0Z"></path></svg>